<svg width="42" height="42" viewBox="0 0 42 42" fill="none" xmlns="http://www.w3.org/2000/svg">
<circle cx="21" cy="21" r="20.5" stroke="#F8B218"/>
<path d="M23.8559 23.2399L23.8559 23.2399L23.8554 23.2376L23.3299 20.9193L25.0745 19.3673L25.0745 19.3673L25.0754 19.3665C25.1717 19.2787 25.2398 19.1792 25.2725 19.0673C25.3054 18.9549 25.3004 18.8376 25.2625 18.7185L25.1672 18.7489L25.2625 18.7185C25.2248 18.6001 25.1624 18.5021 25.0723 18.4309C24.9824 18.3599 24.8717 18.321 24.7459 18.3091L24.7457 18.309L22.4483 18.0943L21.5466 15.9074L21.5463 15.9067C21.4974 15.7908 21.427 15.6975 21.332 15.6336C21.2369 15.5697 21.1245 15.5403 21 15.5403C20.8755 15.5403 20.7631 15.5697 20.668 15.6336C20.573 15.6975 20.5025 15.7908 20.4537 15.9067L20.4534 15.9074L19.5516 18.0943L17.2542 18.309L17.2541 18.3091C17.1283 18.321 17.0175 18.3599 16.9276 18.4309C16.8375 18.5021 16.7752 18.6001 16.7375 18.7185L16.8328 18.7489L16.7375 18.7185C16.6995 18.8376 16.6945 18.9549 16.7274 19.0673C16.7602 19.1792 16.8283 19.2787 16.9246 19.3665L16.9255 19.3673L18.67 20.9193L18.1446 23.2376L18.1446 23.2376L18.1441 23.2399C18.1186 23.3665 18.1231 23.4866 18.1635 23.5965C18.2038 23.7067 18.2775 23.7996 18.3785 23.8759C18.4786 23.9515 18.5855 23.9969 18.6981 24.0028C18.8109 24.0088 18.9195 23.9745 19.0218 23.9082C19.022 23.9081 19.0222 23.908 19.0224 23.9078L21 22.6633L22.9776 23.9078C22.9778 23.908 22.978 23.9081 22.9782 23.9082C23.0805 23.9745 23.189 24.0088 23.3019 24.0028C23.4145 23.9969 23.5214 23.9515 23.6215 23.8759C23.7225 23.7996 23.7961 23.7067 23.8365 23.5965C23.8768 23.4866 23.8814 23.3665 23.8559 23.2399ZM13.2695 27.2721H13.2272L13.1978 27.3024L11.3608 29.1961V13.0344C11.3608 12.8707 11.4257 12.7171 11.5668 12.5711C11.7081 12.4249 11.8551 12.3594 12.01 12.3594H29.99C30.1448 12.3594 30.2918 12.4249 30.4331 12.5711C30.5742 12.7171 30.6391 12.8707 30.6391 13.0344V26.5971C30.6391 26.7607 30.5742 26.9144 30.4331 27.0604C30.2918 27.2065 30.1448 27.2721 29.99 27.2721H13.2695ZM11.7869 30.8468L13.8317 28.7314H29.99C30.5762 28.7314 31.0704 28.5271 31.4654 28.1185C31.8601 27.7101 32.0565 27.2005 32.0565 26.5971V13.0344C32.0565 12.4309 31.8601 11.9214 31.4654 11.513C31.0704 11.1044 30.5762 10.9 29.99 10.9H12.01C11.4237 10.9 10.9296 11.1044 10.5346 11.513C10.1398 11.9214 9.94346 12.4309 9.94346 13.0344V30.058C9.94346 30.2998 9.99735 30.5112 10.1107 30.687C10.2242 30.8631 10.3927 30.996 10.6094 31.0884C10.8259 31.1807 11.0365 31.21 11.238 31.1686C11.4394 31.1272 11.6223 31.0171 11.7869 30.8468Z" fill="#F8B218" stroke="#F8B218" stroke-width="0.2"/>
</svg>
