<svg width="19" height="13" viewBox="0 0 19 13" fill="none" xmlns="http://www.w3.org/2000/svg">
<path d="M1.28036 12.7199C0.98947 12.7199 0.745637 12.6192 0.548859 12.418C0.352082 12.2167 0.253693 11.9674 0.253693 11.6699C0.253693 11.3724 0.352082 11.123 0.548859 10.9217C0.745637 10.7205 0.98947 10.6199 1.28036 10.6199H17.707C17.9979 10.6199 18.2418 10.7205 18.4385 10.9217C18.6353 11.123 18.7337 11.3724 18.7337 11.6699C18.7337 11.9674 18.6353 12.2167 18.4385 12.418C18.2418 12.6192 17.9979 12.7199 17.707 12.7199H1.28036ZM1.28036 7.46987C0.98947 7.46987 0.745637 7.36925 0.548859 7.168C0.352082 6.96675 0.253693 6.71737 0.253693 6.41987C0.253693 6.12237 0.352082 5.873 0.548859 5.67175C0.745637 5.4705 0.98947 5.36987 1.28036 5.36987H17.707C17.9979 5.36987 18.2418 5.4705 18.4385 5.67175C18.6353 5.873 18.7337 6.12237 18.7337 6.41987C18.7337 6.71737 18.6353 6.96675 18.4385 7.168C18.2418 7.36925 17.9979 7.46987 17.707 7.46987H1.28036ZM1.28036 2.21987C0.98947 2.21987 0.745637 2.11925 0.548859 1.918C0.352082 1.71675 0.253693 1.46737 0.253693 1.16987C0.253693 0.872373 0.352082 0.622998 0.548859 0.421748C0.745637 0.220498 0.98947 0.119873 1.28036 0.119873H17.707C17.9979 0.119873 18.2418 0.220498 18.4385 0.421748C18.6353 0.622998 18.7337 0.872373 18.7337 1.16987C18.7337 1.46737 18.6353 1.71675 18.4385 1.918C18.2418 2.11925 17.9979 2.21987 17.707 2.21987H1.28036Z" fill="#F8B218"/>
</svg>
