<svg width="43" height="42" viewBox="0 0 43 42" fill="none" xmlns="http://www.w3.org/2000/svg">
<circle cx="21.4937" cy="21" r="20.5" stroke="#F8B218"/>
<path d="M13.2804 27.7199C12.9895 27.7199 12.7456 27.6192 12.5489 27.418C12.3521 27.2167 12.2537 26.9674 12.2537 26.6699C12.2537 26.3724 12.3521 26.123 12.5489 25.9217C12.7456 25.7205 12.9895 25.6199 13.2804 25.6199H29.707C29.9979 25.6199 30.2418 25.7205 30.4385 25.9217C30.6353 26.123 30.7337 26.3724 30.7337 26.6699C30.7337 26.9674 30.6353 27.2167 30.4385 27.418C30.2418 27.6192 29.9979 27.7199 29.707 27.7199H13.2804ZM13.2804 22.4699C12.9895 22.4699 12.7456 22.3692 12.5489 22.168C12.3521 21.9667 12.2537 21.7174 12.2537 21.4199C12.2537 21.1224 12.3521 20.873 12.5489 20.6717C12.7456 20.4705 12.9895 20.3699 13.2804 20.3699H29.707C29.9979 20.3699 30.2418 20.4705 30.4385 20.6717C30.6353 20.873 30.7337 21.1224 30.7337 21.4199C30.7337 21.7174 30.6353 21.9667 30.4385 22.168C30.2418 22.3692 29.9979 22.4699 29.707 22.4699H13.2804ZM13.2804 17.2199C12.9895 17.2199 12.7456 17.1192 12.5489 16.918C12.3521 16.7167 12.2537 16.4674 12.2537 16.1699C12.2537 15.8724 12.3521 15.623 12.5489 15.4217C12.7456 15.2205 12.9895 15.1199 13.2804 15.1199H29.707C29.9979 15.1199 30.2418 15.2205 30.4385 15.4217C30.6353 15.623 30.7337 15.8724 30.7337 16.1699C30.7337 16.4674 30.6353 16.7167 30.4385 16.918C30.2418 17.1192 29.9979 17.2199 29.707 17.2199H13.2804Z" fill="#F8B218"/>
</svg>
