<svg width="24" height="29" viewBox="0 0 24 29" fill="none" xmlns="http://www.w3.org/2000/svg">
<path d="M11.0145 13.1036V16.3537C11.0145 16.6456 11.1102 16.8904 11.3017 17.0879C11.4931 17.2854 11.729 17.3841 12.0095 17.3841C12.2899 17.3841 12.5247 17.2854 12.7141 17.0879C12.9034 16.8904 12.9981 16.6456 12.9981 16.3537V13.1036H16.1248C16.4051 13.1036 16.6425 13.0056 16.8371 12.8096C17.0316 12.6136 17.1289 12.3707 17.1289 12.081C17.1289 11.7912 17.0335 11.5474 16.8428 11.3495C16.6521 11.1516 16.4157 11.0527 16.1337 11.0527H12.9951V7.796C12.9951 7.5031 12.8997 7.25758 12.7089 7.05943C12.5181 6.86129 12.2816 6.76222 11.9995 6.76222C11.7174 6.76222 11.4811 6.86129 11.2906 7.05943C11.1001 7.25758 11.0049 7.5031 11.0049 7.796V11.0527H7.86625C7.58429 11.0527 7.34795 11.1518 7.15724 11.35C6.9665 11.5483 6.87113 11.7895 6.87113 12.0737C6.87113 12.3658 6.9668 12.6105 7.15815 12.8078C7.34951 13.005 7.58661 13.1036 7.86947 13.1036H11.0145ZM12 26.6403C14.9187 23.996 17.1917 21.4188 18.8189 18.9086C20.4461 16.3984 21.2597 14.185 21.2597 12.2683C21.2597 9.48374 20.3858 7.16717 18.6378 5.31858C16.8899 3.46998 14.6773 2.54568 12 2.54568C9.32268 2.54568 7.11007 3.46998 5.36215 5.31858C3.61424 7.16717 2.74029 9.48374 2.74029 12.2683C2.74029 14.185 3.55388 16.3984 5.18107 18.9086C6.80829 21.4188 9.08127 23.996 12 26.6403ZM12 28.625C11.7272 28.625 11.4735 28.5783 11.2389 28.4848C11.0044 28.3913 10.7664 28.2459 10.5249 28.0488C9.7889 27.3984 8.86687 26.5107 7.75885 25.3857C6.65083 24.2607 5.57175 22.9975 4.52163 21.5961C3.4715 20.1947 2.58037 18.6931 1.84824 17.0915C1.11608 15.4899 0.75 13.8821 0.75 12.2683C0.75 9.03255 1.79718 6.26223 3.89153 3.95734C5.98587 1.65245 8.68231 0.5 11.9809 0.5C15.2794 0.5 17.9822 1.65245 20.0893 3.95734C22.1964 6.26223 23.25 9.03255 23.25 12.2683C23.25 13.8821 22.8775 15.4939 22.1326 17.1037C21.3877 18.7135 20.4991 20.2216 19.4666 21.6281C18.4341 23.0346 17.3639 24.2912 16.2559 25.3979C15.1479 26.5046 14.2258 27.3832 13.4898 28.0335C13.2519 28.2307 13.0134 28.3786 12.7744 28.4772C12.5354 28.5757 12.2773 28.625 12 28.625Z" fill="black"/>
</svg>
