<svg width="15" height="19" viewBox="0 0 15 19" fill="none" xmlns="http://www.w3.org/2000/svg">
<path d="M5.13647 15.4054C4.64763 15.4054 4.23386 15.2257 3.89516 14.8662C3.55645 14.5068 3.38709 14.0677 3.38709 13.5489V1.85657C3.38709 1.33778 3.55645 0.898653 3.89516 0.539192C4.23386 0.179731 4.64763 0 5.13647 0H13.2506C13.7395 0 14.1532 0.179731 14.4919 0.539192C14.8306 0.898653 15 1.33778 15 1.85657V13.5489C15 14.0677 14.8306 14.5068 14.4919 14.8662C14.1532 15.2257 13.7395 15.4054 13.2506 15.4054H5.13647ZM5.13647 13.8649H13.2506C13.3251 13.8649 13.3933 13.832 13.4554 13.7662C13.5174 13.7003 13.5484 13.6279 13.5484 13.5489V1.85657C13.5484 1.77755 13.5174 1.70512 13.4554 1.63927C13.3933 1.57344 13.3251 1.54052 13.2506 1.54052H5.13647C5.06202 1.54052 4.99377 1.57344 4.93174 1.63927C4.86969 1.70512 4.83867 1.77755 4.83867 1.85657V13.5489C4.83867 13.6279 4.86969 13.7003 4.93174 13.7662C4.99377 13.832 5.06202 13.8649 5.13647 13.8649ZM1.74937 19C1.26055 19 0.84678 18.8203 0.508068 18.4608C0.169356 18.1013 0 17.6622 0 17.1435V4.68088C0 4.46231 0.0694764 4.27929 0.208429 4.13183C0.347398 3.98436 0.51985 3.91063 0.725787 3.91063C0.93174 3.91063 1.1042 3.98436 1.24317 4.13183C1.38212 4.27929 1.4516 4.46231 1.4516 4.68088V17.1435C1.4516 17.2225 1.48261 17.2949 1.54465 17.3607C1.6067 17.4266 1.67494 17.4595 1.74937 17.4595H10.5893C10.7953 17.4595 10.9677 17.5332 11.1067 17.6807C11.2457 17.8282 11.3151 18.0112 11.3151 18.2297C11.3151 18.4483 11.2457 18.6313 11.1067 18.7788C10.9677 18.9263 10.7953 19 10.5893 19H1.74937Z" fill="#666666"/>
</svg>
