<svg width="40" height="40" viewBox="0 0 40 40" fill="none" xmlns="http://www.w3.org/2000/svg">
<rect width="40" height="40" fill="white"/>
<path d="M15.8077 27.6845C15.364 27.6845 14.9851 27.5275 14.6711 27.2135C14.357 26.8994 14.2 26.5206 14.2 26.0768V14.3846H13.65C13.4655 14.3846 13.3111 14.3229 13.1866 14.1994C13.0622 14.076 13 13.9228 13 13.7398C13 13.5569 13.0622 13.4019 13.1866 13.275C13.3111 13.1481 13.4655 13.0846 13.65 13.0846H17.3V12.7846C17.3 12.5681 17.3766 12.3832 17.5299 12.2299C17.6831 12.0766 17.868 12 18.0846 12H21.3154C21.5319 12 21.7168 12.0766 21.8701 12.2299C22.0233 12.3832 22.1 12.5681 22.1 12.7846V13.0846H25.75C25.9344 13.0846 26.0889 13.1463 26.2133 13.2697C26.3377 13.3931 26.4 13.5463 26.4 13.7293C26.4 13.9123 26.3377 14.0673 26.2133 14.1942C26.0889 14.3211 25.9344 14.3846 25.75 14.3846H25.2V26.066C25.2 26.522 25.0429 26.9057 24.7289 27.2172C24.4148 27.5288 24.036 27.6845 23.5922 27.6845H15.8077ZM23.9 14.3846H15.5V26.0768C15.5 26.1666 15.5288 26.2403 15.5865 26.298C15.6442 26.3557 15.7179 26.3846 15.8077 26.3846H23.5922C23.682 26.3846 23.7557 26.3557 23.8134 26.298C23.8711 26.2403 23.9 26.1666 23.9 26.0768V14.3846ZM19.7 21.3134L21.2481 22.8615C21.3865 22.9999 21.5397 23.0666 21.7077 23.0615C21.8756 23.0564 22.032 22.9814 22.1769 22.8365C22.3218 22.6916 22.3942 22.5368 22.3942 22.3721C22.3942 22.2073 22.3218 22.0525 22.1769 21.9077L20.6288 20.3846L22.1769 18.8365C22.3153 18.698 22.3862 18.5448 22.3894 18.3769C22.3926 18.2089 22.3218 18.0525 22.1769 17.9077C22.032 17.7628 21.8772 17.6904 21.7125 17.6904C21.5477 17.6904 21.3929 17.7628 21.2481 17.9077L19.7 19.4557L18.1519 17.9077C18.0134 17.7692 17.8644 17.6984 17.7048 17.6952C17.5452 17.692 17.3929 17.7628 17.2481 17.9077C17.1032 18.0525 17.0307 18.2073 17.0307 18.3721C17.0307 18.5368 17.1032 18.6916 17.2481 18.8365L18.7711 20.3846L17.2231 21.9327C17.0846 22.0711 17.0179 22.2202 17.0231 22.3798C17.0282 22.5394 17.1032 22.6916 17.2481 22.8365C17.3929 22.9814 17.5477 23.0538 17.7125 23.0538C17.8772 23.0538 18.032 22.9814 18.1769 22.8365L19.7 21.3134Z" fill="#C1283C"/>
</svg>
