<svg width="42" height="42" viewBox="0 0 42 42" fill="none" xmlns="http://www.w3.org/2000/svg">
<circle cx="21" cy="21" r="20.5" stroke="#F8B218"/>
<path d="M13.1812 32C12.5705 32 12.0543 31.7934 11.6326 31.3803C11.2109 30.9672 11 30.4615 11 29.8632V13.1368C11 12.5385 11.2109 12.0328 11.6326 11.6197C12.0543 11.2066 12.5705 11 13.1812 11H20.8491C21.0994 11 21.3089 11.082 21.4777 11.2461C21.6465 11.4101 21.7309 11.6137 21.7309 11.8569C21.7309 12.1001 21.6465 12.3061 21.4777 12.4748C21.3089 12.6435 21.0994 12.7278 20.8491 12.7278H13.1812C13.0768 12.7278 12.9811 12.7704 12.8941 12.8556C12.8072 12.9408 12.7637 13.0346 12.7637 13.1368V29.8632C12.7637 29.9654 12.8072 30.0592 12.8941 30.1444C12.9811 30.2296 13.0768 30.2722 13.1812 30.2722H20.8491C21.0994 30.2722 21.3089 30.3542 21.4777 30.5182C21.6465 30.6822 21.7309 30.8859 21.7309 31.1291C21.7309 31.3723 21.6465 31.5782 21.4777 31.7469C21.3089 31.9156 21.0994 32 20.8491 32H13.1812ZM29.0336 22.3639H19.4728C19.2229 22.3639 19.0137 22.2819 18.8451 22.1179C18.6765 21.9538 18.5922 21.7502 18.5922 21.507C18.5922 21.2638 18.6765 21.0578 18.8451 20.8891C19.0137 20.7204 19.2229 20.6361 19.4728 20.6361H29.0336L27.069 18.7114C26.8812 18.5274 26.7851 18.3187 26.7808 18.0854C26.7764 17.8521 26.8725 17.6442 27.069 17.4618C27.2656 17.2793 27.4756 17.1902 27.6991 17.1945C27.9226 17.1987 28.1283 17.2929 28.3161 17.4769L31.666 20.7588C31.8887 20.9688 32 21.2139 32 21.494C32 21.774 31.8887 22.0231 31.666 22.2412L28.3161 25.5231C28.137 25.6986 27.937 25.7851 27.7161 25.7825C27.4952 25.7799 27.2854 25.6867 27.0867 25.5026C26.901 25.3186 26.806 25.115 26.8016 24.8918C26.7973 24.6686 26.8934 24.4607 27.0899 24.2681L29.0336 22.3639Z" fill="#F8B218"/>
</svg>
