<svg width="40" height="40" viewBox="0 0 40 40" fill="none" xmlns="http://www.w3.org/2000/svg">
<rect width="40" height="40" fill="white"/>
<path d="M13.3 26.5H14.4115L24.2481 16.6634L23.1365 15.5519L13.3 25.3885V26.5ZM12.8084 27.8C12.5826 27.8 12.3914 27.7234 12.2349 27.5702C12.0783 27.417 12 27.2271 12 27.0007V25.5216C12 25.3056 12.0385 25.0996 12.1154 24.9036C12.1923 24.7076 12.3128 24.5276 12.4769 24.3635L24.4404 12.3808C24.5749 12.2434 24.7197 12.1456 24.8747 12.0874C25.0297 12.0291 25.1921 12 25.362 12C25.5319 12 25.6942 12.0273 25.8488 12.0818C26.0034 12.1362 26.1531 12.2327 26.298 12.3712L27.4192 13.4827C27.5576 13.6275 27.6557 13.7776 27.7134 13.9328C27.7711 14.088 27.7999 14.2477 27.7999 14.4119C27.7999 14.587 27.7696 14.7542 27.7089 14.9135C27.6482 15.0727 27.5516 15.2182 27.4192 15.35L15.4365 27.323C15.2724 27.4871 15.0927 27.6076 14.8976 27.6846C14.7024 27.7615 14.4971 27.8 14.2818 27.8H12.8084ZM23.6825 16.1174L23.1365 15.5519L24.2481 16.6634L23.6825 16.1174Z" fill="black"/>
</svg>
