<svg width="46" height="46" viewBox="0 0 46 46" fill="none" xmlns="http://www.w3.org/2000/svg">
<path d="M23 46C35.7025 46 46 35.7025 46 23C46 10.2975 35.7025 0 23 0C10.2975 0 0 10.2975 0 23C0 35.7025 10.2975 46 23 46Z" fill="#F8B218"/>
<path d="M9.86222 12.096C9.69447 12.2814 9.40311 12.0518 9.53554 11.8399C10.6304 10.1624 12.1843 8.57315 14.0473 7.5313C16.6342 6.05683 19.8215 5.27104 23 5.26221C26.1874 5.27104 29.3659 6.06566 31.944 7.54013C33.8158 8.5908 35.3609 10.1801 36.4557 11.8664C36.5881 12.0783 36.3056 12.2991 36.129 12.1225C34.8135 10.7098 33.1977 9.5267 31.3789 8.62612C28.8538 7.38121 25.9313 6.70136 22.9912 6.71019C20.0511 6.69253 17.1286 7.36355 14.5947 8.60846C12.7935 9.50904 11.1778 10.6921 9.86222 12.096Z" fill="#010101"/>
<path d="M31.4053 36.438C32.2618 35.1137 31.8027 33.5862 30.5312 33.4979C29.9485 33.4538 28.7124 33.4714 27.6088 35.6169C26.4433 37.886 24.8894 38.3805 24.6775 38.4423C24.1213 38.5394 23.565 38.61 23 38.6453C17.7643 38.9102 14.4886 37.2238 12.7934 36.0672C12.6169 35.9524 12.4226 36.182 12.5727 36.3321C12.9612 36.7118 13.385 37.0649 13.8176 37.3916C20.6073 42.3624 29.3128 38.4688 29.3128 38.4688C30.8932 37.7713 32.3854 36.8883 33.7362 35.8377C33.8952 35.7141 33.7451 35.4668 33.5597 35.5463C32.8445 35.8553 32.1293 36.1555 31.4053 36.438Z" fill="#010101"/>
<path d="M19.9539 41.1438C24.2537 42.9979 27.2821 40.7112 27.2821 40.7112C22.8675 41.9119 19.9539 41.1438 19.9539 41.1438Z" fill="#010101"/>
<path d="M12.5462 25.1809C13.076 25.1809 14.109 25.3575 14.109 26.002C14.109 26.2669 13.9236 26.4965 13.6587 26.4965C13.3585 26.4965 13.1554 26.2404 12.5462 26.2404C11.6456 26.2404 11.1777 27.0085 11.1777 27.9091C11.1777 28.7832 11.6545 29.5337 12.5462 29.5337C13.1554 29.5337 13.4027 29.2247 13.7028 29.2247C14.0295 29.2247 14.1796 29.5513 14.1796 29.7279C14.1796 30.4343 13.076 30.5932 12.5374 30.5932C11.0629 30.5932 10.0299 29.4101 10.0299 27.8915C10.0387 26.3552 11.0629 25.1809 12.5462 25.1809Z" fill="#010101"/>
<path d="M15.663 25.7902C15.7071 25.5253 15.9897 25.2251 16.3781 25.2251C16.7401 25.2251 17.0227 25.49 17.1021 25.7548L17.9586 28.6596H17.9762L18.8327 25.7548C18.9121 25.49 19.1946 25.2251 19.5566 25.2251C19.9451 25.2251 20.2277 25.5253 20.2718 25.7902L20.9517 29.8869C20.9605 29.931 20.9605 29.9752 20.9605 30.0105C20.9605 30.3372 20.7309 30.5403 20.4396 30.5403C20.0687 30.5403 19.9186 30.3725 19.8745 30.0282L19.4419 27.0351H19.4242L18.5501 30.1165C18.4971 30.293 18.3647 30.5403 17.9674 30.5403C17.5701 30.5403 17.4376 30.293 17.3847 30.1165L16.5106 27.0351H16.4929L16.0603 30.0282C16.0073 30.3725 15.8661 30.5403 15.4952 30.5403C15.2039 30.5403 14.9743 30.3372 14.9743 30.0105C14.9743 29.9752 14.9743 29.931 14.9831 29.8869L15.663 25.7902Z" fill="#010101"/>
<path d="M23.1059 25.7901C23.2295 25.4546 23.5121 25.1809 23.8829 25.1809C24.2714 25.1809 24.5362 25.437 24.6599 25.7901L26.0902 29.7897C26.1343 29.9045 26.152 30.0105 26.152 30.0634C26.152 30.346 25.9224 30.549 25.6487 30.549C25.3397 30.549 25.1896 30.3901 25.119 30.1694L24.8982 29.4807H22.8764L22.6556 30.1606C22.585 30.3901 22.4261 30.549 22.1347 30.549C21.8433 30.549 21.5961 30.3283 21.5961 30.037C21.5961 29.9222 21.6314 29.8339 21.6491 29.7986L23.1059 25.7901ZM23.1854 28.4565H24.5716L23.8917 26.3287H23.8741L23.1854 28.4565Z" fill="#010101"/>
<path d="M26.929 25.7637C26.929 25.4635 27.1497 25.2163 27.4764 25.2163C27.7854 25.2163 28.0238 25.4194 28.0238 25.7637V27.353L29.8161 25.4282C29.8956 25.3399 30.0368 25.2251 30.2399 25.2251C30.5136 25.2251 30.7785 25.437 30.7785 25.7549C30.7785 25.9491 30.6637 26.0992 30.4253 26.3464L29.048 27.715L30.7255 29.4808C30.8933 29.6574 31.0345 29.8163 31.0345 30.037C31.0345 30.3814 30.7696 30.5403 30.4695 30.5403C30.2576 30.5403 30.1163 30.4167 29.9132 30.196L28.0238 28.1388V30.0105C28.0238 30.2931 27.803 30.5403 27.4764 30.5403C27.1673 30.5403 26.929 30.3372 26.929 30.0105V25.7637Z" fill="#010101"/>
<path d="M31.8115 25.7902C31.8115 25.4194 32.0411 25.2163 32.3589 25.2163C32.668 25.2163 32.9063 25.4194 32.9063 25.7902V29.9576C32.9063 30.3284 32.6768 30.5315 32.3589 30.5315C32.0499 30.5315 31.8115 30.3284 31.8115 29.9576V25.7902Z" fill="#010101"/>
<path d="M34.0011 25.8167C34.0011 25.4635 34.2395 25.2693 34.575 25.2693H35.97C36.7294 25.2693 37.3386 25.7814 37.3386 26.5583C37.3386 27.0704 37.1267 27.4148 36.6587 27.6355V27.6532C37.2768 27.7415 37.7624 28.2624 37.7624 28.8981C37.7624 29.9311 37.0737 30.4962 36.076 30.4962H34.575C34.2395 30.4962 33.9923 30.2843 33.9923 29.9399V25.8167H34.0011ZM35.096 27.3353H35.661C36.0142 27.3353 36.2526 27.1234 36.2526 26.7526C36.2526 26.4082 35.9789 26.2317 35.661 26.2317H35.096V27.3353ZM35.096 29.5249H35.9524C36.3497 29.5249 36.6411 29.2954 36.6411 28.8892C36.6411 28.5449 36.3762 28.3065 35.8729 28.3065H35.096V29.5249Z" fill="#010101"/>
<path d="M2.6134 17.1992C2.6134 16.7401 2.84296 16.3958 3.32857 16.3958H5.60649C6.04795 16.3958 6.25985 16.7136 6.25985 17.0315C6.25985 17.3493 6.03912 17.6672 5.60649 17.6672H3.99075V19.018H5.50054C5.95083 19.018 6.17156 19.3359 6.17156 19.6537C6.17156 19.9716 5.942 20.2894 5.50054 20.2894H3.99075V21.7021H5.69479C6.13624 21.7021 6.34814 22.0199 6.34814 22.3378C6.34814 22.6556 6.12741 22.9735 5.69479 22.9735H3.31974C2.9136 22.9735 2.6134 22.691 2.6134 22.276V17.1992Z" fill="#010101"/>
<path d="M12.6963 17.1197V22.329C12.6963 22.7969 12.405 23.0529 12.0077 23.0529C11.6104 23.0529 11.319 22.7969 11.319 22.329V17.623H8.43186V22.329C8.43186 22.7969 8.14049 23.0529 7.74318 23.0529C7.34587 23.0529 7.0545 22.7969 7.0545 22.329V17.1197C7.0545 16.6518 7.3547 16.3958 7.74318 16.3958H12.0077C12.3962 16.3958 12.6963 16.6518 12.6963 17.1197Z" fill="#010101"/>
<path d="M13.7029 17.058C13.7029 16.59 13.9942 16.334 14.3916 16.334C14.7889 16.334 15.0802 16.59 15.0802 17.058V22.3202C15.0802 22.7881 14.7889 23.0442 14.3916 23.0442C13.9942 23.0442 13.7029 22.7881 13.7029 22.3202V17.058Z" fill="#010101"/>
<path d="M21.9758 24.5009C21.5785 24.5009 21.2871 24.2449 21.2871 23.7769V23H16.793C16.4046 23 16.1044 22.7439 16.1044 22.276V17.0668C16.1044 16.5988 16.3957 16.3428 16.793 16.3428C17.1904 16.3428 17.4817 16.5988 17.4817 17.0668V21.7727H20.3689V17.0668C20.3689 16.5988 20.6602 16.3428 21.0575 16.3428C21.4549 16.3428 21.7462 16.5988 21.7462 17.0668V21.7727H21.9758C22.3643 21.7727 22.6644 22.0288 22.6644 22.4967V23.7769C22.6644 24.2361 22.3643 24.5009 21.9758 24.5009Z" fill="#010101"/>
<path d="M23.2119 17.1992C23.2119 16.7401 23.4415 16.3958 23.9271 16.3958H26.205C26.6465 16.3958 26.8584 16.7136 26.8584 17.0315C26.8584 17.3493 26.6376 17.6672 26.205 17.6672H24.5893V19.018H26.0991C26.5493 19.018 26.7701 19.3359 26.7701 19.6537C26.7701 19.9716 26.5405 20.2894 26.0991 20.2894H24.5893V21.7021H26.2933C26.7348 21.7021 26.9467 22.0199 26.9467 22.3378C26.9467 22.6556 26.7259 22.9735 26.2933 22.9735H23.9182C23.5121 22.9735 23.2119 22.691 23.2119 22.276V17.1992Z" fill="#010101"/>
<path d="M27.653 17.058C27.653 16.59 27.9444 16.334 28.3417 16.334C28.739 16.334 29.0304 16.59 29.0304 17.058V19.0269H31.9175V17.058C31.9175 16.59 32.2089 16.334 32.6062 16.334C33.0035 16.334 33.2949 16.59 33.2949 17.058V22.3202C33.2949 22.7881 33.0035 23.0442 32.6062 23.0442C32.2089 23.0442 31.9175 22.7881 31.9175 22.3202V20.3071H29.0304V22.329C29.0304 22.7969 28.739 23.053 28.3417 23.053C27.9444 23.053 27.653 22.7969 27.653 22.329V17.058Z" fill="#010101"/>
<path d="M35.4138 17.6759H34.4073C33.9658 17.6759 33.7804 17.3493 33.7804 17.0402C33.7804 16.7136 34.01 16.4045 34.4073 16.4045H37.7888C38.1862 16.4045 38.4157 16.7224 38.4157 17.0402C38.4157 17.3581 38.2303 17.6759 37.7888 17.6759H36.7823V22.3289C36.7823 22.7969 36.491 23.0529 36.0936 23.0529C35.6963 23.0529 35.405 22.7969 35.405 22.3289V17.6759H35.4138Z" fill="#010101"/>
<path d="M38.9102 17.1197C38.9102 16.6871 39.1662 16.3958 39.6253 16.3958H41.2499C42.6008 16.3958 43.6073 17.2875 43.6073 18.6119C43.6073 19.9627 42.5655 20.8103 41.3117 20.8103H40.2875V22.329C40.2875 22.7969 39.9962 23.0529 39.5989 23.0529C39.2015 23.0529 38.9102 22.7969 38.9102 22.329V17.1197ZM40.2875 19.5831H41.2234C41.8062 19.5831 42.1681 19.1593 42.1681 18.603C42.1681 18.0468 41.7973 17.623 41.2234 17.623H40.2875V19.5831Z" fill="#010101"/>
</svg>
