<svg width="15" height="13" viewBox="0 0 15 13" fill="none" xmlns="http://www.w3.org/2000/svg">
<path d="M7.50391 0C6.85547 0 6.30469 0.421875 6.09766 1H2.67969L0.0078125 7H0.00390625V7.00391L0 7.01562H0.0078125C0.0156251 8.66016 1.35938 10 3.00391 10C4.65625 10 6.00391 8.65234 6.00391 7H5.98047L3.76953 2H6.09766C6.25 2.41797 6.58203 2.75391 7.00391 2.90625V12H5.00391V13H10.0039V12H8.00391V2.90625C8.42578 2.75391 8.75781 2.41797 8.91016 2H11.2344L9.00391 7V7.00391L9 7.01562H9.00391C9.01562 8.66016 10.3594 10 12.0039 10C13.6562 10 15.0039 8.65234 15.0039 7H14.9844L12.332 1H8.91016C8.70312 0.421875 8.15234 0 7.50391 0ZM7.50391 1C7.78516 1 8.00391 1.21875 8.00391 1.5C8.00391 1.78125 7.78516 2 7.50391 2C7.22266 2 7.00391 1.78125 7.00391 1.5C7.00391 1.21875 7.22266 1 7.50391 1ZM3.00391 2.73438L4.89063 7H1.10156L3.00391 2.73438ZM12.0039 2.73438L13.8906 7H10.1016L12.0039 2.73438ZM1.28516 8H4.72266C4.37891 8.59766 3.74609 9 3.00391 9C2.26172 9 1.62891 8.59766 1.28516 8ZM10.2812 8H13.7266C13.3828 8.59766 12.7461 9 12.0039 9C11.2617 9 10.625 8.59766 10.2812 8Z" fill="#808080"/>
</svg>
