<svg width="17" height="18" viewBox="0 0 17 18" fill="none" xmlns="http://www.w3.org/2000/svg">
<path d="M8.5 13.0938C8.36341 13.0938 8.23628 13.0708 8.1186 13.0246C8.00091 12.9785 7.88903 12.8992 7.78296 12.7869L4.25874 9.05541C4.09019 8.87695 4.00702 8.66811 4.00921 8.42889C4.01138 8.18967 4.09456 7.97698 4.25874 7.79082C4.43456 7.60467 4.63652 7.50852 4.86462 7.50236C5.09274 7.4962 5.29471 7.58621 5.47053 7.77237L7.65002 10.0801V0.900003C7.65002 0.644622 7.73139 0.430782 7.89412 0.258482C8.05685 0.0861611 8.25881 0 8.5 0C8.74119 0 8.94315 0.0861611 9.10588 0.258482C9.26861 0.430782 9.34997 0.644622 9.34997 0.900003V10.0801L11.5295 7.77237C11.698 7.5939 11.8982 7.50583 12.1299 7.50813C12.3617 7.51045 12.5654 7.60467 12.7413 7.79082C12.9054 7.97698 12.9904 8.18775 12.9962 8.42313C13.002 8.65851 12.9171 8.86927 12.7413 9.05541L9.21703 12.7869C9.11097 12.8992 8.99909 12.9785 8.8814 13.0246C8.76372 13.0708 8.63659 13.0938 8.5 13.0938ZM2.04873 18C1.47625 18 0.99167 17.79 0.595002 17.37C0.198334 16.95 0 16.4369 0 15.8308V13.4769C0 13.2215 0.0813735 13.0077 0.244121 12.8354C0.406849 12.6631 0.60881 12.5769 0.850003 12.5769C1.0912 12.5769 1.29316 12.6631 1.45588 12.8354C1.61861 13.0077 1.69998 13.2215 1.69998 13.4769V15.8308C1.69998 15.9231 1.7363 16.0077 1.80895 16.0846C1.88161 16.1616 1.96154 16.2 2.04873 16.2H14.9513C15.0385 16.2 15.1184 16.1616 15.191 16.0846C15.2637 16.0077 15.3 15.9231 15.3 15.8308V13.4769C15.3 13.2215 15.3814 13.0077 15.5441 12.8354C15.7068 12.6631 15.9088 12.5769 16.15 12.5769C16.3912 12.5769 16.5931 12.6631 16.7559 12.8354C16.9186 13.0077 17 13.2215 17 13.4769V15.8308C17 16.4369 16.8017 16.95 16.405 17.37C16.0083 17.79 15.5238 18 14.9513 18H2.04873Z" fill="#666666"/>
</svg>
