<svg width="19" height="19" viewBox="0 0 19 19" fill="none" xmlns="http://www.w3.org/2000/svg">
<path d="M6.77387 13.5631C4.8944 13.5631 3.29556 12.9032 1.97735 11.5832C0.659117 10.2633 0 8.66274 0 6.78155C0 4.90037 0.659117 3.29981 1.97735 1.97987C3.29556 0.659957 4.89405 0 6.77281 0C8.65157 0 10.2501 0.659957 11.5683 1.97987C12.8865 3.29981 13.5457 4.90072 13.5457 6.78261C13.5457 7.57217 13.4161 8.32717 13.1571 9.04759C12.8981 9.76801 12.5475 10.4185 12.1052 10.9991L18.7436 17.646C18.9106 17.8133 18.996 17.9933 18.9999 18.186C19.0038 18.3788 18.9183 18.5626 18.7436 18.7376C18.5689 18.9125 18.3821 19 18.1834 19C17.9848 19 17.7981 18.9125 17.6233 18.7376L10.985 12.1209C10.3819 12.5792 9.72062 12.9341 9.00113 13.1857C8.28163 13.4373 7.53921 13.5631 6.77387 13.5631ZM6.77281 11.9932C8.22635 11.9932 9.45722 11.4884 10.4654 10.4789C11.4736 9.46943 11.9777 8.23697 11.9777 6.78155C11.9777 5.32614 11.4736 4.09368 10.4654 3.08418C9.45722 2.07468 8.22635 1.56993 6.77281 1.56993C5.31927 1.56993 4.0884 2.07468 3.0802 3.08418C2.07202 4.09368 1.56793 5.32614 1.56793 6.78155C1.56793 8.23697 2.07202 9.46943 3.0802 10.4789C4.0884 11.4884 5.31927 11.9932 6.77281 11.9932Z" fill="#939393"/>
</svg>
